<?xml version="1.0" standalone="no"?>
<!DOCTYPE svg PUBLIC "-//W3C//DTD SVG 20010904//EN"
 "http://www.w3.org/TR/2001/REC-SVG-20010904/DTD/svg10.dtd">
<svg version="1.0" xmlns="http://www.w3.org/2000/svg"
 width="500.000000pt" height="500.000000pt" viewBox="0 0 500.000000 500.000000"
 preserveAspectRatio="xMidYMid meet">
<metadata>
Created by potrace 1.11, written by Peter Selinger 2001-2013
</metadata>
<g transform="translate(0.000000,500.000000) scale(0.100000,-0.100000)"
fill="#000000" stroke="none">
<path d="M2859 4688 c-131 -28 -216 -89 -250 -177 -42 -107 17 -271 163 -453
21 -26 21 -28 4 -97 -9 -38 -37 -119 -62 -179 -24 -61 -48 -130 -53 -155 -11
-63 -3 -269 15 -362 2 -11 7 -40 10 -65 6 -51 9 -74 20 -145 5 -27 7 -54 6
-58 -1 -5 1 -6 6 -3 4 2 6 44 5 93 -2 48 -5 178 -5 288 -2 220 0 232 70 384
41 91 58 144 76 233 15 75 24 55 -73 172 -22 28 -57 83 -77 125 -78 161 -51
260 91 327 82 38 231 71 333 73 17 1 32 5 32 9 0 15 -230 7 -311 -10z"/>
<path d="M3185 4700 c-3 -6 1 -7 9 -4 18 7 21 14 7 14 -6 0 -13 -4 -16 -10z"/>
<path d="M389 3015 c-10 -150 2 -251 45 -380 92 -273 299 -577 596 -876 197
-197 423 -390 457 -390 10 0 51 3 91 6 105 9 213 -26 259 -85 8 -10 12 -11 13
-3 0 20 -90 80 -150 99 -33 11 -88 18 -137 18 -92 1 -72 -11 -227 136 -230
220 -387 391 -518 567 -23 32 -45 60 -48 63 -8 7 -80 123 -122 195 -20 33 -52
96 -73 140 -72 153 -81 205 -22 130 48 -62 205 -216 272 -266 161 -122 396
-235 548 -265 10 -2 27 -6 38 -9 10 -4 29 -8 42 -9 12 -2 33 -6 47 -9 69 -16
350 -30 350 -17 0 4 -21 8 -47 9 -132 7 -202 17 -314 47 -52 13 -101 26 -109
28 -86 22 -293 124 -402 197 -221 148 -385 336 -556 639 -22 38 -32 49 -33 35z"/>
<path d="M1931 2835 c-108 -361 -7 -656 247 -724 56 -15 133 -21 126 -10 -3 5
-16 9 -28 9 -13 0 -55 16 -94 35 -172 87 -238 246 -208 507 11 102 13 103 76
46 48 -43 157 -118 173 -118 3 0 18 -5 34 -12 38 -15 50 -17 114 -19 92 -3
185 39 238 105 l25 31 -27 -25 c-55 -49 -115 -69 -197 -66 -82 4 -120 18 -211
78 -53 35 -229 211 -229 229 0 5 -4 9 -9 9 -4 0 -18 -34 -30 -75z"/>
<path d="M1866 2058 c3 -4 9 -8 15 -8 5 0 9 4 9 8 0 5 -7 9 -15 9 -8 0 -12 -4
-9 -9z"/>
<path d="M4050 1383 c-30 -20 -57 -39 -60 -43 -3 -4 -12 -11 -21 -16 -24 -13
-88 -65 -126 -101 -18 -17 -33 -29 -33 -27 0 9 -92 -78 -260 -245 -249 -248
-397 -364 -575 -454 -75 -37 -188 -75 -243 -80 -40 -5 -54 -16 -21 -18 197
-12 376 62 624 259 83 66 265 247 355 352 36 41 79 90 97 108 17 17 31 32 29
32 -1 0 31 34 73 75 41 41 76 75 78 75 2 0 15 10 28 23 31 28 62 53 100 77 17
11 26 20 20 19 -5 0 -35 -16 -65 -36z"/>
<path d="M1866 953 c-15 -66 -16 -81 -17 -138 -3 -158 46 -262 156 -332 25
-15 45 -33 45 -39 0 -24 62 -94 105 -119 52 -31 125 -35 194 -11 53 18 145 73
186 111 18 17 35 30 38 30 8 0 96 79 97 87 0 4 -22 -9 -49 -30 -27 -20 -76
-50 -108 -67 -32 -16 -61 -34 -64 -38 -3 -4 -16 -9 -27 -10 -12 -1 -22 -6 -22
-11 0 -5 -2 -7 -6 -4 -3 3 -24 0 -47 -7 -36 -10 -63 -11 -125 -3 -27 3 -70 55
-82 99 -7 24 -14 50 -16 57 -2 6 -14 12 -26 12 -41 0 -123 46 -160 89 -50 59
-67 124 -64 249 1 56 1 102 0 102 -1 0 -5 -12 -8 -27z"/>
</g>
</svg>
